<?xml version="1.0" encoding="utf-8"?>
<!-- Generator: Adobe Illustrator 27.7.0, SVG Export Plug-In . SVG Version: 6.00 Build 0)  -->
<svg version="1.1" id="Ebene_1" xmlns="http://www.w3.org/2000/svg" xmlns:xlink="http://www.w3.org/1999/xlink" x="0px" y="0px"
	 viewBox="0 0 100 100" style="enable-background:new 0 0 100 100;" xml:space="preserve">
<style type="text/css">
	.st0{fill:#FFFFFF;}
	.st1{fill:#281540;}
	.st2{fill:#8D4795;}
</style>
<g>
	<circle class="st0" cx="61.79" cy="78.9" r="7.43"/>
	<path d="M61.79,86.48c-4.18,0-7.58-3.4-7.58-7.58s3.4-7.58,7.58-7.58s7.58,3.4,7.58,7.58S65.97,86.48,61.79,86.48z M61.79,71.61
		c-4.02,0-7.28,3.27-7.28,7.28c0,4.01,3.27,7.28,7.28,7.28c4.01,0,7.28-3.27,7.28-7.28C69.07,74.88,65.8,71.61,61.79,71.61z"/>
</g>
<g>
	<circle class="st0" cx="46.12" cy="57.49" r="4.18"/>
	<path d="M46.12,61.82c-2.39,0-4.33-1.94-4.33-4.33s1.94-4.33,4.33-4.33s4.33,1.94,4.33,4.33S48.51,61.82,46.12,61.82z M46.12,53.45
		c-2.22,0-4.03,1.81-4.03,4.03s1.81,4.03,4.03,4.03s4.03-1.81,4.03-4.03S48.34,53.45,46.12,53.45z"/>
</g>
<g>
	<circle class="st0" cx="46.12" cy="57.49" r="4.18"/>
	<path d="M46.12,61.82c-2.39,0-4.33-1.94-4.33-4.33s1.94-4.33,4.33-4.33s4.33,1.94,4.33,4.33S48.51,61.82,46.12,61.82z M46.12,53.45
		c-2.22,0-4.03,1.81-4.03,4.03s1.81,4.03,4.03,4.03s4.03-1.81,4.03-4.03S48.34,53.45,46.12,53.45z"/>
</g>
<g>
	<circle class="st0" cx="46.12" cy="57.49" r="4.18"/>
	<path d="M46.12,61.82c-2.39,0-4.33-1.94-4.33-4.33s1.94-4.33,4.33-4.33s4.33,1.94,4.33,4.33S48.51,61.82,46.12,61.82z M46.12,53.45
		c-2.22,0-4.03,1.81-4.03,4.03s1.81,4.03,4.03,4.03s4.03-1.81,4.03-4.03S48.34,53.45,46.12,53.45z"/>
</g>
<polyline class="st1" points="69.19,42.63 51.07,13.98 50.92,14.26 "/>
<path class="st1" d="M68.75,42.69"/>
<g>
	<g>
		<polygon class="st2" points="97.15,86.33 51.26,13.62 42.08,13.62 87.97,86.33 		"/>
		<path d="M97.42,86.48h-9.53l-0.04-0.07L41.81,13.47h9.53l0.04,0.07L97.42,86.48z M88.06,86.18h8.82l-45.7-72.41h-8.82L88.06,86.18
			z"/>
	</g>
	<g>
		<polygon class="st0" points="69.62,57.25 74.2,49.98 97.15,13.62 87.97,13.62 69.62,42.7 65.03,49.98 		"/>
		<path d="M69.62,57.53l-4.77-7.55l0.05-0.08l22.99-36.43h9.53l-0.15,0.23L69.62,57.53z M65.2,49.98l4.41,6.99l27.26-43.2h-8.82
			L65.2,49.98z"/>
	</g>
	<g>
		<polygon class="st0" points="69.62,57.25 74.2,49.98 97.15,13.62 87.97,13.62 69.62,42.7 65.03,49.98 		"/>
		<path d="M69.62,57.53l-4.77-7.55l0.05-0.08l22.99-36.43h9.53l-0.15,0.23L69.62,57.53z M65.2,49.98l4.41,6.99l27.26-43.2h-8.82
			L65.2,49.98z"/>
	</g>
	<g>
		<polygon class="st0" points="69.62,57.25 74.2,49.98 97.15,13.62 87.97,13.62 69.62,42.7 65.03,49.98 		"/>
		<path d="M69.62,57.53l-4.77-7.55l0.05-0.08l22.99-36.43h9.53l-0.15,0.23L69.62,57.53z M65.2,49.98l4.41,6.99l27.26-43.2h-8.82
			L65.2,49.98z"/>
	</g>
	<g>
		<polygon class="st0" points="69.62,57.25 74.2,49.98 97.15,13.62 87.97,13.62 69.62,42.7 65.03,49.98 		"/>
		<path d="M69.62,57.53l-4.77-7.55l0.05-0.08l22.99-36.43h9.53l-0.15,0.23L69.62,57.53z M65.2,49.98l4.41,6.99l27.26-43.2h-8.82
			L65.2,49.98z"/>
	</g>
	<g>
		<polygon class="st0" points="69.62,57.25 74.2,49.98 97.15,13.62 87.97,13.62 69.62,42.7 65.03,49.98 		"/>
		<path d="M69.62,57.53l-4.77-7.55l0.05-0.08l22.99-36.43h9.53l-0.15,0.23L69.62,57.53z M65.2,49.98l4.41,6.99l27.26-43.2h-8.82
			L65.2,49.98z"/>
	</g>
	<g>
		<polygon class="st0" points="69.62,57.25 74.2,49.98 97.15,13.62 87.97,13.62 69.62,42.7 65.03,49.98 		"/>
		<path d="M69.62,57.53l-4.77-7.55l0.05-0.08l22.99-36.43h9.53l-0.15,0.23L69.62,57.53z M65.2,49.98l4.41,6.99l27.26-43.2h-8.82
			L65.2,49.98z"/>
	</g>
	<g>
		<polygon class="st0" points="69.62,57.25 74.2,49.98 97.15,13.62 87.97,13.62 69.62,42.7 65.03,49.98 		"/>
		<path d="M69.62,57.53l-4.77-7.55l0.05-0.08l22.99-36.43h9.53l-0.15,0.23L69.62,57.53z M65.2,49.98l4.41,6.99l27.26-43.2h-8.82
			L65.2,49.98z"/>
	</g>
	<g>
		<polygon class="st0" points="69.62,57.25 74.2,49.98 97.15,13.62 87.97,13.62 69.62,42.7 65.03,49.98 		"/>
		<path d="M69.62,57.53l-4.77-7.55l0.05-0.08l22.99-36.43h9.53l-0.15,0.23L69.62,57.53z M65.2,49.98l4.41,6.99l27.26-43.2h-8.82
			L65.2,49.98z"/>
	</g>
	<g>
		<polygon class="st0" points="69.62,57.25 74.2,49.98 97.15,13.62 87.97,13.62 69.62,42.7 65.03,49.98 		"/>
		<path d="M69.62,57.53l-4.77-7.55l0.05-0.08l22.99-36.43h9.53l-0.15,0.23L69.62,57.53z M65.2,49.98l4.41,6.99l27.26-43.2h-8.82
			L65.2,49.98z"/>
	</g>
	<g>
		<polygon class="st0" points="69.62,57.25 74.2,49.98 97.15,13.62 87.97,13.62 69.62,42.7 65.03,49.98 		"/>
		<path d="M69.62,57.53l-4.77-7.55l0.05-0.08l22.99-36.43h9.53l-0.15,0.23L69.62,57.53z M65.2,49.98l4.41,6.99l27.26-43.2h-8.82
			L65.2,49.98z"/>
	</g>
	<polyline points="96.52,13.95 69.56,56.62 95.7,14.49 	"/>
	<polygon class="st0" points="43.96,14.7 65.05,48.83 43.06,14.23 	"/>
	<polygon class="st0" points="70.14,57.25 88.33,85.86 70.81,57.65 	"/>
	<polygon class="st0" points="65.48,49.98 69.62,56.4 65.96,50.15 	"/>
	<polygon class="st1" points="74.37,51.32 74.26,50.66 96.53,85.95 	"/>
</g>
<path d="M46.35,61.04l0.62,0.16c1.22-0.08,2.05-1.19,2.51-2.29c0.19-0.46,0.32-0.96,0.36-1.47l-0.03-0.57l-0.12,0.5
	c-0.09,0.38-0.23,0.75-0.41,1.09c-0.11,0.21-0.22,0.43-0.34,0.65c0,0.01-0.01,0.01-0.01,0.02c-0.46,0.89-1.3,1.52-2.26,1.81
	L46.35,61.04z"/>
<path d="M62.92,85.71L62.92,85.71c1.46-0.12,2.88-0.72,3.81-1.84c0.4-0.48,0.72-1.03,0.95-1.63l0.17-0.69l-0.32,0.55
	c-0.25,0.43-0.55,0.82-0.89,1.17c-0.2,0.2-0.41,0.42-0.62,0.64c-0.57,0.6-1.28,1.07-2.05,1.38L62.92,85.71z"/>
<path d="M51.31,86.44h-9.46l0.14-0.23l21.2-34.43l0.13,0.2l4.72,7.3L68,59.35L51.31,86.44z M42.39,86.13h8.76l16.55-26.86
	l-4.49-6.94L42.39,86.13z"/>
<path d="M51.31,86.44h-9.46l0.14-0.23l21.2-34.43l0.13,0.2l4.72,7.3L68,59.35L51.31,86.44z M42.39,86.13h8.76l16.55-26.86
	l-4.49-6.94L42.39,86.13z"/>
<path d="M51.31,86.44h-9.46l0.14-0.23l21.2-34.43l0.13,0.2l4.72,7.3L68,59.35L51.31,86.44z M42.39,86.13h8.76l16.55-26.86
	l-4.49-6.94L42.39,86.13z"/>
<path d="M51.31,86.44h-9.46l0.14-0.23l21.2-34.43l0.13,0.2l4.72,7.3L68,59.35L51.31,86.44z M42.39,86.13h8.76l16.55-26.86
	l-4.49-6.94L42.39,86.13z"/>
<path d="M51.31,86.44h-9.46l0.14-0.23l21.2-34.43l0.13,0.2l4.72,7.3L68,59.35L51.31,86.44z M42.39,86.13h8.76l16.55-26.86
	l-4.49-6.94L42.39,86.13z"/>
<path d="M51.31,86.44h-9.46l0.14-0.23l21.2-34.43l0.13,0.2l4.72,7.3L68,59.35L51.31,86.44z M42.39,86.13h8.76l16.55-26.86
	l-4.49-6.94L42.39,86.13z"/>
<path d="M51.31,86.44h-9.46l0.14-0.23l21.2-34.43l0.13,0.2l4.72,7.3L68,59.35L51.31,86.44z M42.39,86.13h8.76l16.55-26.86
	l-4.49-6.94L42.39,86.13z"/>
<g>
	<polygon class="st0" points="51.23,86.29 42.12,86.29 63.2,52.05 67.87,59.27 	"/>
	<path d="M51.31,86.44h-9.46l0.14-0.23l21.2-34.43l0.13,0.2l4.72,7.3L68,59.35L51.31,86.44z M42.39,86.13h8.76l16.55-26.86
		l-4.49-6.94L42.39,86.13z"/>
</g>
<g>
	<polygon class="st0" points="25.58,86.28 39.41,63.5 48.5,63.46 48.51,63.46 34.69,86.28 	"/>
	<path d="M34.77,86.43l-9.46,0l0.14-0.23l13.88-22.85l0.08,0l9.36-0.04l-0.13,0.23L34.77,86.43z M25.84,86.13l8.76,0l13.64-22.52
		l-8.75,0.03L25.84,86.13z"/>
</g>
<g>
	<polygon class="st0" points="1.71,86.32 22.59,52.42 39.17,52.42 33.93,60.89 26.07,60.89 24.53,63.39 32.51,63.39 27.28,71.87 
		19.61,71.87 10.42,86.32 	"/>
	<path d="M10.5,86.47H1.44l0.14-0.23l20.92-33.98h16.94l-5.43,8.78h-7.85l-1.36,2.2h7.98l-5.42,8.77h-7.67L10.5,86.47z M1.98,86.17
		h8.36l9.19-14.46h7.66l5.05-8.17h-7.98l1.73-2.8h7.85l5.06-8.17H22.67L1.98,86.17z"/>
</g>
<polygon points="17.97,72.79 10.12,86.02 19.13,71.91 "/>
<polygon points="38.57,52.8 33.7,60.56 37.6,53.14 "/>
<polygon points="31.96,63.68 27.04,71.56 30.94,64.37 "/>
<polygon points="46.95,64.49 34.43,86.04 47.95,63.7 "/>
<polygon points="67.44,59.37 50.85,86.07 66.65,59.87 "/>
<polyline class="st1" points="69.06,42.48 51.05,13.93 50.86,14.12 "/>
</svg>
