<?xml version="1.0" encoding="utf-8"?>
<!-- Generator: Adobe Illustrator 27.7.0, SVG Export Plug-In . SVG Version: 6.00 Build 0)  -->
<svg version="1.1" id="Ebene_1" xmlns="http://www.w3.org/2000/svg" xmlns:xlink="http://www.w3.org/1999/xlink" x="0px" y="0px"
	 viewBox="0 0 100 100" style="enable-background:new 0 0 100 100;" xml:space="preserve">
<style type="text/css">
	.st0{fill:#FFFFFF;stroke:#000000;stroke-miterlimit:10;}
	.st1{fill:#8D4795;}
	.st2{fill:#FFFFFF;}
	.st3{fill:#281540;}
</style>
<path class="st0" d="M28.04,83.53"/>
<g>
	<polygon class="st1" points="74.64,83.53 32.42,16.64 23.98,16.64 66.2,83.53 	"/>
	<path class="st2" d="M74.92,83.68h-8.8l-0.04-0.07L23.71,16.49h8.8l0.04,0.07L74.92,83.68z M66.28,83.38h8.09L32.34,16.79h-8.09
		L66.28,83.38z"/>
</g>
<g>
	<polygon points="49.31,56.78 53.53,50.09 74.64,16.64 66.2,16.64 49.31,43.4 45.09,50.09 	"/>
	<path class="st2" d="M49.31,57.06l-4.4-6.97l4.27-6.77l16.93-26.83h8.8l-0.15,0.23L49.31,57.06z M45.27,50.09l4.04,6.41l25.06-39.7
		h-8.09L45.27,50.09z"/>
</g>
<g>
	<ellipse cx="46.57" cy="69.65" rx="2.16" ry="2.14"/>
	<path class="st2" d="M46.57,71.94c-0.92,0-1.8-0.55-2.16-1.46c-0.22-0.57-0.21-1.19,0.03-1.75c0.25-0.56,0.7-1,1.28-1.22
		c1.19-0.46,2.53,0.12,3,1.3c0.22,0.57,0.21,1.19-0.03,1.75c-0.25,0.56-0.7,1-1.28,1.22l0,0C47.13,71.89,46.85,71.94,46.57,71.94z
		 M46.56,67.65c-0.24,0-0.49,0.04-0.73,0.14c-0.5,0.2-0.9,0.57-1.11,1.06c-0.21,0.49-0.22,1.02-0.03,1.52
		c0.4,1.02,1.58,1.53,2.61,1.13l0,0c0.5-0.2,0.9-0.57,1.11-1.06c0.21-0.49,0.22-1.02,0.03-1.52C48.13,68.14,47.37,67.65,46.56,67.65
		z"/>
</g>
<g>
	<polygon points="40.6,83.25 36.42,83.25 42.69,72.91 46.86,72.91 	"/>
	<path class="st2" d="M40.68,83.41h-4.53l0.14-0.23l6.31-10.42h4.53l-0.14,0.23L40.68,83.41z M36.68,83.1h3.83l6.09-10.04h-3.83
		L36.68,83.1z"/>
</g>
<g>
	<ellipse cx="51.02" cy="81.93" rx="1.37" ry="1.36"/>
	<path class="st2" d="M51.02,83.44c-0.13,0-0.26-0.02-0.39-0.05c-0.4-0.1-0.73-0.35-0.93-0.71c-0.2-0.35-0.26-0.75-0.15-1.14
		c0.22-0.8,1.05-1.28,1.86-1.07c0.4,0.1,0.73,0.35,0.93,0.71c0.2,0.35,0.26,0.75,0.15,1.14C52.31,83,51.69,83.44,51.02,83.44z
		 M51.02,80.73c-0.54,0-1.04,0.36-1.18,0.9c-0.08,0.31-0.04,0.63,0.12,0.91c0.16,0.28,0.43,0.48,0.75,0.57
		c0.65,0.18,1.32-0.21,1.49-0.86c0.08-0.31,0.04-0.63-0.12-0.91c-0.16-0.28-0.43-0.48-0.75-0.57
		C51.23,80.74,51.12,80.73,51.02,80.73z"/>
</g>
<g>
	<polygon points="49.06,83.29 46.37,83.29 50.41,76.62 53.11,76.62 	"/>
	<path class="st2" d="M49.15,83.44H46.1l0.14-0.23l4.09-6.75h3.05L49.15,83.44z M46.63,83.14h2.35l3.86-6.37H50.5L46.63,83.14z"/>
</g>
<g>
	<polygon points="39.92,70.99 35.7,70.99 27.44,83.25 23.75,83.25 39.58,58.44 47.71,58.44 45.04,62.62 41.32,62.62 38.51,66.8 
		42.36,66.8 	"/>
	<path class="st2" d="M27.51,83.41h-4.04l0.15-0.23L39.5,58.29l8.49,0l-2.87,4.48h-3.71l-2.61,3.88h3.83L40,71.14l-4.23,0
		L27.51,83.41z M24.03,83.1h3.33l8.26-12.27l4.22,0l2.27-3.88h-3.87l3.02-4.48h3.71l2.49-3.88l-7.78,0L24.03,83.1z"/>
</g>
<polyline class="st2" points="66.35,17.77 45.69,50.09 66.38,17.15 "/>
<polygon class="st2" points="25.71,17.64 45.11,49.03 24.89,17.21 "/>
<polygon class="st2" points="49.79,56.78 66.53,83.1 50.41,57.15 "/>
<polyline class="st3" points="48.65,43.42 32.2,17.22 31.9,17.2 "/>
<path class="st3" d="M48.51,43.39"/>
<polygon class="st2" points="39.8,58.83 24.65,82.83 39.99,59.1 "/>
<polygon class="st2" points="42.91,73.53 37.43,82.63 43.13,73.97 "/>
<polygon class="st2" points="50.65,77.05 47.29,82.77 50.75,77.26 "/>
<path class="st2" d="M45.75,68L45.75,68c-0.48,0.37-0.83,0.89-0.9,1.48c-0.03,0.25-0.02,0.52,0.04,0.77l0.1,0.27l-0.01-0.26
	c-0.01-0.2,0-0.4,0.04-0.6c0.02-0.11,0.05-0.24,0.07-0.36c0.06-0.34,0.2-0.65,0.4-0.93L45.75,68z"/>
<polyline class="st2" points="50.97,80.92 51.02,80.96 50.13,82.32 "/>
<polygon class="st2" points="45.51,50.09 49.31,56 45.95,50.25 "/>
<polygon class="st3" points="53.57,51.25 53.56,50.85 73.55,82.87 "/>
</svg>
