<?xml version="1.0" encoding="utf-8"?>
<!-- Generator: Adobe Illustrator 27.7.0, SVG Export Plug-In . SVG Version: 6.00 Build 0)  -->
<svg version="1.1" id="Ebene_1" xmlns="http://www.w3.org/2000/svg" xmlns:xlink="http://www.w3.org/1999/xlink" x="0px" y="0px"
	 viewBox="0 0 100 100" style="enable-background:new 0 0 100 100;" xml:space="preserve">
<style type="text/css">
	.st0{fill:#FFFFFF;}
	.st1{fill:#281540;}
	.st2{fill:#8D4795;}
</style>
<g>
	<circle cx="62.85" cy="78.92" r="7.43"/>
	<path class="st0" d="M62.85,86.51c-4.18,0-7.58-3.4-7.58-7.58s3.4-7.58,7.58-7.58s7.58,3.4,7.58,7.58S67.03,86.51,62.85,86.51z
		 M62.85,71.64c-4.02,0-7.28,3.27-7.28,7.28c0,4.02,3.27,7.28,7.28,7.28c4.01,0,7.28-3.27,7.28-7.28
		C70.13,74.91,66.87,71.64,62.85,71.64z"/>
</g>
<g>
	<circle class="st0" cx="47.18" cy="57.51" r="4.18"/>
	<path d="M47.18,61.84c-2.39,0-4.33-1.94-4.33-4.33s1.94-4.33,4.33-4.33c2.39,0,4.33,1.94,4.33,4.33S49.57,61.84,47.18,61.84z
		 M47.18,53.48c-2.22,0-4.03,1.81-4.03,4.03s1.81,4.03,4.03,4.03c2.22,0,4.03-1.81,4.03-4.03S49.4,53.48,47.18,53.48z"/>
</g>
<g>
	<circle class="st0" cx="47.18" cy="57.51" r="4.18"/>
	<path d="M47.18,61.84c-2.39,0-4.33-1.94-4.33-4.33s1.94-4.33,4.33-4.33c2.39,0,4.33,1.94,4.33,4.33S49.57,61.84,47.18,61.84z
		 M47.18,53.48c-2.22,0-4.03,1.81-4.03,4.03s1.81,4.03,4.03,4.03c2.22,0,4.03-1.81,4.03-4.03S49.4,53.48,47.18,53.48z"/>
</g>
<g>
	<circle cx="47.18" cy="57.51" r="4.18"/>
	<path class="st0" d="M47.18,61.84c-2.39,0-4.33-1.94-4.33-4.33s1.94-4.33,4.33-4.33c2.39,0,4.33,1.94,4.33,4.33
		S49.57,61.84,47.18,61.84z M47.18,53.48c-2.22,0-4.03,1.81-4.03,4.03s1.81,4.03,4.03,4.03c2.22,0,4.03-1.81,4.03-4.03
		S49.4,53.48,47.18,53.48z"/>
</g>
<polyline class="st1" points="70.25,42.66 52.13,14.01 51.98,14.29 "/>
<path class="st1" d="M69.81,42.72"/>
<g>
	<polygon class="st2" points="98.21,86.36 52.32,13.65 43.14,13.65 89.03,86.36 	"/>
	<path class="st0" d="M98.48,86.51h-9.53l-0.04-0.07L42.87,13.5h9.53l0.04,0.07L98.48,86.51z M89.12,86.21h8.82L52.24,13.8h-8.82
		L89.12,86.21z"/>
</g>
<g>
	<polygon class="st0" points="70.68,57.28 75.26,50 98.21,13.65 89.03,13.65 70.68,42.73 66.09,50 	"/>
	<path d="M70.68,57.56L65.91,50l4.64-7.35l18.4-29.16h9.53l-0.15,0.23L70.68,57.56z M66.26,50l4.41,6.99l27.26-43.2h-8.82L66.26,50z
		"/>
</g>
<g>
	<polygon class="st0" points="70.68,57.28 75.26,50 98.21,13.65 89.03,13.65 70.68,42.73 66.09,50 	"/>
	<path d="M70.68,57.56L65.91,50l4.64-7.35l18.4-29.16h9.53l-0.15,0.23L70.68,57.56z M66.26,50l4.41,6.99l27.26-43.2h-8.82L66.26,50z
		"/>
</g>
<g>
	<polygon class="st0" points="70.68,57.28 75.26,50 98.21,13.65 89.03,13.65 70.68,42.73 66.09,50 	"/>
	<path d="M70.68,57.56L65.91,50l4.64-7.35l18.4-29.16h9.53l-0.15,0.23L70.68,57.56z M66.26,50l4.41,6.99l27.26-43.2h-8.82L66.26,50z
		"/>
</g>
<g>
	<polygon class="st0" points="70.68,57.28 75.26,50 98.21,13.65 89.03,13.65 70.68,42.73 66.09,50 	"/>
	<path d="M70.68,57.56L65.91,50l4.64-7.35l18.4-29.16h9.53l-0.15,0.23L70.68,57.56z M66.26,50l4.41,6.99l27.26-43.2h-8.82L66.26,50z
		"/>
</g>
<g>
	<polygon class="st0" points="70.68,57.28 75.26,50 98.21,13.65 89.03,13.65 70.68,42.73 66.09,50 	"/>
	<path d="M70.68,57.56L65.91,50l4.64-7.35l18.4-29.16h9.53l-0.15,0.23L70.68,57.56z M66.26,50l4.41,6.99l27.26-43.2h-8.82L66.26,50z
		"/>
</g>
<g>
	<polygon class="st0" points="70.68,57.28 75.26,50 98.21,13.65 89.03,13.65 70.68,42.73 66.09,50 	"/>
	<path d="M70.68,57.56L65.91,50l4.64-7.35l18.4-29.16h9.53l-0.15,0.23L70.68,57.56z M66.26,50l4.41,6.99l27.26-43.2h-8.82L66.26,50z
		"/>
</g>
<g>
	<polygon class="st0" points="70.68,57.28 75.26,50 98.21,13.65 89.03,13.65 70.68,42.73 66.09,50 	"/>
	<path d="M70.68,57.56L65.91,50l4.64-7.35l18.4-29.16h9.53l-0.15,0.23L70.68,57.56z M66.26,50l4.41,6.99l27.26-43.2h-8.82L66.26,50z
		"/>
</g>
<g>
	<polygon class="st0" points="70.68,57.28 75.26,50 98.21,13.65 89.03,13.65 70.68,42.73 66.09,50 	"/>
	<path d="M70.68,57.56L65.91,50l4.64-7.35l18.4-29.16h9.53l-0.15,0.23L70.68,57.56z M66.26,50l4.41,6.99l27.26-43.2h-8.82L66.26,50z
		"/>
</g>
<g>
	<polygon class="st0" points="70.68,57.28 75.26,50 98.21,13.65 89.03,13.65 70.68,42.73 66.09,50 	"/>
	<path d="M70.68,57.56L65.91,50l4.64-7.35l18.4-29.16h9.53l-0.15,0.23L70.68,57.56z M66.26,50l4.41,6.99l27.26-43.2h-8.82L66.26,50z
		"/>
</g>
<g>
	<polygon points="70.68,57.28 75.26,50 98.21,13.65 89.03,13.65 70.68,42.73 66.09,50 	"/>
	<path class="st0" d="M70.68,57.56L65.91,50l4.64-7.35l18.4-29.16h9.53l-0.15,0.23L70.68,57.56z M66.26,50l4.41,6.99l27.26-43.2
		h-8.82L66.26,50z"/>
</g>
<polyline class="st0" points="89.68,14.29 66.74,49.76 89.22,13.76 "/>
<polygon class="st0" points="45.02,14.73 66.11,48.86 44.12,14.26 "/>
<polygon class="st0" points="71.2,57.28 89.39,85.89 71.87,57.68 "/>
<polygon class="st0" points="66.54,50 70.68,56.43 67.02,50.18 "/>
<polygon class="st1" points="75.43,51.35 75.32,50.68 97.59,85.98 "/>
<path class="st0" d="M47.38,54.08l-0.59-0.26c-1.22-0.12-2.23,0.83-2.86,1.83c-0.27,0.42-0.48,0.89-0.6,1.39l-0.07,0.57l0.2-0.47
	c0.15-0.36,0.35-0.7,0.59-1.01c0.14-0.18,0.29-0.38,0.44-0.58c0-0.01,0.01-0.01,0.01-0.02c0.6-0.8,1.54-1.28,2.53-1.4L47.38,54.08z"
	/>
<path d="M52.37,86.46h-9.46l0.14-0.23L64.25,51.8l0.13,0.2l4.72,7.3l-0.05,0.08L52.37,86.46z M43.45,86.16h8.76L68.75,59.3
	l-4.49-6.94L43.45,86.16z"/>
<path d="M52.37,86.46h-9.46l0.14-0.23L64.25,51.8l0.13,0.2l4.72,7.3l-0.05,0.08L52.37,86.46z M43.45,86.16h8.76L68.75,59.3
	l-4.49-6.94L43.45,86.16z"/>
<path d="M52.37,86.46h-9.46l0.14-0.23L64.25,51.8l0.13,0.2l4.72,7.3l-0.05,0.08L52.37,86.46z M43.45,86.16h8.76L68.75,59.3
	l-4.49-6.94L43.45,86.16z"/>
<path d="M52.37,86.46h-9.46l0.14-0.23L64.25,51.8l0.13,0.2l4.72,7.3l-0.05,0.08L52.37,86.46z M43.45,86.16h8.76L68.75,59.3
	l-4.49-6.94L43.45,86.16z"/>
<path d="M52.37,86.46h-9.46l0.14-0.23L64.25,51.8l0.13,0.2l4.72,7.3l-0.05,0.08L52.37,86.46z M43.45,86.16h8.76L68.75,59.3
	l-4.49-6.94L43.45,86.16z"/>
<path d="M52.37,86.46h-9.46l0.14-0.23L64.25,51.8l0.13,0.2l4.72,7.3l-0.05,0.08L52.37,86.46z M43.45,86.16h8.76L68.75,59.3
	l-4.49-6.94L43.45,86.16z"/>
<path d="M52.37,86.46h-9.46l0.14-0.23L64.25,51.8l0.13,0.2l4.72,7.3l-0.05,0.08L52.37,86.46z M43.45,86.16h8.76L68.75,59.3
	l-4.49-6.94L43.45,86.16z"/>
<g>
	<polygon points="52.29,86.31 43.18,86.31 64.26,52.08 68.93,59.3 	"/>
	<path class="st0" d="M52.37,86.46h-9.46l0.14-0.23L64.25,51.8l0.13,0.2l4.72,7.3l-0.05,0.08L52.37,86.46z M43.45,86.16h8.76
		L68.75,59.3l-4.49-6.94L43.45,86.16z"/>
</g>
<g>
	<polygon points="26.64,86.31 40.47,63.52 49.56,63.49 49.57,63.49 35.75,86.31 	"/>
	<path class="st0" d="M35.83,86.46l-9.46,0l0.14-0.23l13.88-22.85l0.08,0l9.36-0.04l-0.13,0.23L35.83,86.46z M26.9,86.16l8.76,0
		L49.3,63.64l-8.75,0.03L26.9,86.16z"/>
</g>
<g>
	<polygon points="2.77,86.35 23.65,52.44 40.23,52.44 34.99,60.92 27.13,60.92 25.59,63.42 33.57,63.42 28.34,71.89 20.67,71.89 
		11.48,86.35 	"/>
	<path class="st0" d="M11.56,86.5H2.5l0.14-0.23l20.92-33.98H40.5l-5.43,8.77h-7.85l-1.36,2.2h7.98l-5.42,8.78h-7.67L11.56,86.5z
		 M3.04,86.2h8.36l9.19-14.46h7.66l5.05-8.17h-7.98l1.73-2.8h7.85l5.06-8.17H23.73L3.04,86.2z"/>
</g>
<polygon class="st0" points="24.11,52.72 3.41,86.23 24.49,53.15 "/>
<polygon class="st0" points="40.91,63.93 27.41,86.21 41.67,64.18 "/>
<polygon class="st0" points="64.7,53.92 44.09,86.07 64.37,52.98 "/>
<polyline class="st1" points="70.12,42.51 52.11,13.96 51.92,14.15 "/>
<polyline class="st0" points="61.6,72.37 61.97,72.65 56.61,81.03 "/>
</svg>
