<?xml version="1.0" encoding="utf-8"?>
<!-- Generator: Adobe Illustrator 27.7.0, SVG Export Plug-In . SVG Version: 6.00 Build 0)  -->
<svg version="1.1" id="Ebene_1" xmlns="http://www.w3.org/2000/svg" xmlns:xlink="http://www.w3.org/1999/xlink" x="0px" y="0px"
	 viewBox="0 0 100 100" style="enable-background:new 0 0 100 100;" xml:space="preserve">
<style type="text/css">
	.st0{fill:#FFFFFF;stroke:#000000;stroke-miterlimit:10;}
	.st1{fill:#8D4795;}
	.st2{fill:#FFFFFF;}
	.st3{fill:#281540;}
</style>
<path class="st0" d="M29.34,83.45"/>
<g>
	<polygon class="st1" points="75.94,83.45 33.72,16.56 25.28,16.56 67.5,83.45 	"/>
	<path d="M76.21,83.6h-8.8l-0.04-0.07L25.01,16.41h8.8l0.04,0.07L76.21,83.6z M67.58,83.3h8.09L33.64,16.71h-8.09L67.58,83.3z"/>
</g>
<g>
	<polygon class="st2" points="50.61,56.69 54.83,50 75.94,16.56 67.5,16.56 50.61,43.31 46.39,50 	"/>
	<path d="M50.61,56.97L46.21,50l4.27-6.77l16.93-26.83h8.8l-0.15,0.23L50.61,56.97z M46.56,50l4.04,6.41l25.06-39.7h-8.09L46.56,50z
		"/>
</g>
<g>
	<ellipse class="st2" cx="47.86" cy="69.56" rx="2.16" ry="2.14"/>
	<path d="M47.87,71.86c-0.92,0-1.8-0.55-2.16-1.46c-0.22-0.57-0.21-1.19,0.03-1.75c0.25-0.56,0.7-1,1.28-1.22
		c1.19-0.46,2.53,0.12,3,1.3c0.22,0.57,0.21,1.19-0.03,1.75c-0.25,0.56-0.7,1-1.28,1.22C48.43,71.8,48.15,71.86,47.87,71.86z
		 M47.86,67.57c-0.24,0-0.49,0.04-0.73,0.14c-0.5,0.2-0.9,0.57-1.11,1.06c-0.21,0.49-0.22,1.02-0.03,1.52
		c0.41,1.02,1.57,1.53,2.61,1.13c0.5-0.2,0.9-0.57,1.11-1.06c0.21-0.49,0.22-1.02,0.03-1.52C49.43,68.05,48.67,67.57,47.86,67.57z"
		/>
</g>
<g>
	<polygon class="st2" points="41.89,83.17 37.72,83.17 43.98,72.83 48.16,72.83 	"/>
	<path d="M41.98,83.32h-4.53l0.14-0.23l6.31-10.42h4.53l-0.14,0.23L41.98,83.32z M37.98,83.02h3.83l6.09-10.04h-3.83L37.98,83.02z"
		/>
</g>
<g>
	<ellipse class="st2" cx="52.32" cy="81.85" rx="1.37" ry="1.36"/>
	<path d="M52.31,83.36c-0.13,0-0.26-0.02-0.39-0.05c-0.4-0.1-0.72-0.35-0.93-0.71c-0.2-0.35-0.26-0.75-0.15-1.14
		c0.22-0.8,1.05-1.28,1.86-1.07l0,0c0.39,0.1,0.72,0.35,0.93,0.71c0.2,0.35,0.26,0.75,0.15,1.14
		C53.61,82.91,52.99,83.36,52.31,83.36z M52.32,80.64c-0.54,0-1.04,0.36-1.18,0.9c-0.08,0.31-0.04,0.63,0.12,0.91
		c0.16,0.28,0.43,0.48,0.75,0.57c0.65,0.17,1.32-0.21,1.5-0.86c0.08-0.31,0.04-0.63-0.12-0.91c-0.16-0.28-0.43-0.48-0.75-0.57l0,0
		C52.52,80.66,52.42,80.64,52.32,80.64z"/>
</g>
<g>
	<polygon class="st2" points="50.36,83.21 47.66,83.21 51.71,76.54 54.4,76.54 	"/>
	<path d="M50.45,83.36H47.4l0.14-0.23l4.09-6.75h3.05L50.45,83.36z M47.93,83.06h2.35l3.86-6.37h-2.34L47.93,83.06z"/>
</g>
<g>
	<polygon class="st2" points="41.22,70.9 36.99,70.9 28.73,83.17 25.05,83.17 40.88,58.36 49.01,58.36 46.33,62.54 42.62,62.54 
		39.81,66.72 43.66,66.72 	"/>
	<path d="M28.81,83.32h-4.04l0.15-0.23l15.87-24.88l8.49,0l-2.87,4.48H42.7l-2.61,3.88h3.83l-2.62,4.48l-4.23,0L28.81,83.32z
		 M25.32,83.02h3.33l8.26-12.27l4.22,0l2.27-3.88h-3.87l3.02-4.48h3.71l2.49-3.88l-7.78,0L25.32,83.02z"/>
</g>
<polyline points="75.36,16.87 50.56,56.11 74.61,17.36 "/>
<polygon class="st2" points="27.01,17.55 46.41,48.95 26.18,17.12 "/>
<polygon class="st2" points="51.09,56.69 67.82,83.02 51.71,57.07 "/>
<polyline class="st3" points="50.22,43.25 33.55,16.89 33.41,17.15 "/>
<path class="st3" d="M49.81,43.3"/>
<polygon points="35.92,71.5 28.55,82.87 36.74,70.8 "/>
<polygon points="47.04,73.65 41.75,82.8 47.64,73.16 "/>
<polygon points="53.94,76.8 50.22,82.9 53.4,77.18 "/>
<path d="M48.19,71.4L48.19,71.4c0.56-0.22,1.05-0.62,1.28-1.17c0.1-0.24,0.16-0.49,0.18-0.75l-0.01-0.29l-0.06,0.25
	c-0.05,0.2-0.12,0.39-0.21,0.57c-0.05,0.1-0.11,0.21-0.17,0.32c-0.16,0.3-0.38,0.57-0.65,0.78L48.19,71.4z"/>
<path d="M52.04,82.99L52.04,82.99c0.43-0.03,0.84-0.21,1.11-0.54c0.12-0.14,0.21-0.3,0.28-0.47l0.05-0.2l-0.09,0.16
	c-0.07,0.13-0.16,0.24-0.26,0.34c-0.06,0.06-0.12,0.12-0.18,0.19c-0.17,0.18-0.37,0.31-0.6,0.4L52.04,82.99z"/>
<polygon class="st2" points="46.81,50 50.61,55.92 47.25,50.17 "/>
<polygon class="st3" points="54.98,51.24 54.88,50.63 75.37,83.1 "/>
<polygon points="43.16,67.05 41.01,70.65 42.63,67.41 "/>
<polygon points="48.42,58.72 46.09,62.22 47.89,58.94 "/>
</svg>
